# Blender v2.81 (sub 16) OBJ File: 'Hovercrafttriangles.blend'
# www.blender.org
mtllib track_1.mtl
o Cube
v -4.849410 7.116249 -44.696411
v -4.849409 8.007809 -44.696411
v -9.971233 7.116250 -50.542328
v -9.971233 8.007811 -50.542328
v 10.803314 7.116248 -56.593948
v 10.803313 8.007809 -56.593948
v 7.819380 7.116250 -63.770569
v 7.819380 8.007811 -63.770569
v 10.803314 7.116250 -56.593948
v 10.803314 8.007809 -56.593948
v 7.819380 7.116250 -63.770569
v 7.819380 8.007811 -63.770569
v 29.201187 7.116250 -57.599045
v 29.201187 8.007811 -57.599045
v 31.369890 7.116250 -65.062599
v 31.369890 8.007811 -65.062599
v 29.201187 7.116250 -57.599045
v 29.201187 8.007811 -57.599045
v 31.369886 7.116250 -65.062599
v 31.369886 8.007811 -65.062599
v 45.576897 7.116250 -47.518150
v 45.576897 8.007811 -47.518150
v 50.910217 7.116250 -53.171791
v 50.910217 8.007811 -53.171791
v 45.576897 7.116250 -47.518150
v 45.576897 8.007811 -47.518150
v 50.910217 7.116250 -53.171783
v 50.910217 8.007811 -53.171783
v 57.588020 7.116250 -31.726151
v 57.588020 8.007809 -31.726151
v 64.317078 7.116249 -35.615585
v 64.317078 8.007811 -35.615585
v 57.588020 7.116249 -31.726151
v 57.588020 8.007811 -31.726151
v 64.317070 7.116249 -35.615578
v 64.317070 8.007811 -35.615578
v 65.885910 7.116250 -13.371964
v 65.885910 8.007812 -13.371964
v 73.256454 7.116250 -15.838305
v 73.256454 8.007811 -15.838306
v 65.885910 7.116251 -13.371964
v 65.885910 8.007811 -13.371964
v 73.256454 7.116250 -15.838305
v 73.256454 8.007811 -15.838305
v 70.438614 7.116249 6.207030
v 70.438614 8.007811 6.207030
v 78.166183 7.116250 5.374885
v 78.166183 8.007811 5.374885
v 70.438614 7.116250 6.207030
v 70.438614 8.007811 6.207030
v 78.166183 7.116250 5.374885
v 78.166183 8.007811 5.374885
v 68.541412 7.116250 25.536219
v 68.541428 8.007810 25.536219
v 75.950600 7.116250 27.883972
v 75.950600 8.007811 27.883972
v 68.541412 7.116250 25.536219
v 68.541412 8.007811 25.536219
v 75.950600 7.116250 27.883972
v 75.950600 8.007811 27.883972
v 59.728333 7.116251 43.422684
v 59.728333 8.007811 43.422684
v 66.262558 7.116251 47.631218
v 66.262558 8.007811 47.631218
v 59.728333 7.116251 43.422676
v 59.728333 8.007811 43.422676
v 66.262550 7.116251 47.631218
v 66.262550 8.007811 47.631218
v 46.726990 7.116249 58.334671
v 46.726990 8.007811 58.334671
v 51.647232 7.116249 64.351234
v 51.647232 8.007811 64.351234
v 46.726990 7.116250 58.334671
v 46.726990 8.007810 58.334671
v 51.647232 7.116250 64.351234
v 51.647232 8.007811 64.351234
v 29.775465 7.116249 67.214996
v 29.775465 8.007809 67.214996
v 31.621279 7.116249 74.764877
v 31.621279 8.007811 74.764877
v 29.775465 7.116248 67.214996
v 29.775465 8.007809 67.214996
v 31.621279 7.116250 74.764877
v 31.621279 8.007811 74.764877
v 10.435693 7.116250 67.500977
v 10.435693 8.007811 67.500977
v 8.997429 7.116250 75.138992
v 8.997429 8.007811 75.138992
v 10.435693 7.116250 67.500977
v 10.435693 8.007811 67.500977
v 8.997429 7.116250 75.138992
v 8.997429 8.007810 75.138992
v -8.315887 7.116248 60.816483
v -8.315887 8.007810 60.816483
v -11.752200 7.116251 67.787819
v -11.752200 8.007812 67.787834
v -8.315887 7.116249 60.816483
v -8.315887 8.007810 60.816483
v -11.752200 7.116250 67.787819
v -11.752200 8.007811 67.787819
v -25.467773 7.116250 50.069183
v -25.467773 8.007811 50.069191
v -30.032656 7.116250 56.359634
v -30.032656 8.007811 56.359634
v -25.467773 7.116250 50.069183
v -25.467773 8.007811 50.069183
v -30.032656 7.116250 56.359634
v -30.032656 8.007811 56.359634
v -41.130501 7.116250 37.056961
v -41.130501 8.007811 37.056961
v -46.457336 7.116250 42.716690
v -46.457336 8.007811 42.716690
v -41.130501 7.116250 37.056961
v -41.130501 8.007811 37.056961
v -46.457336 7.116251 42.716690
v -46.457336 8.007811 42.716690
v -55.132812 7.116250 22.241680
v -55.132812 8.007811 22.241680
v -61.096596 7.116251 27.225771
v -61.096596 8.007811 27.225771
v -55.132812 7.116249 22.241680
v -55.132812 8.007810 22.241680
v -61.096596 7.116251 27.225771
v -61.096596 8.007811 27.225771
v -66.684219 7.116250 5.799966
v -66.684219 8.007811 5.799966
v -73.584877 7.116250 9.376109
v -73.584877 8.007811 9.376107
v -66.684219 7.116250 5.799966
v -66.684219 8.007811 5.799966
v -73.584877 7.116250 9.376107
v -73.584877 8.007811 9.376107
v -70.205902 7.116250 -11.451321
v -70.205902 8.007811 -11.451321
v -77.328850 7.116250 -14.561243
v -77.328850 8.007811 -14.561243
v -70.205902 7.116250 -11.451321
v -70.205902 8.007811 -11.451321
v -77.328850 7.116250 -14.561243
v -77.328850 8.007811 -14.561243
v -55.024979 7.116250 -20.320322
v -55.024979 8.007810 -20.320322
v -57.280121 7.116249 -27.758211
v -57.280121 8.007810 -27.758211
v -55.024979 7.116249 -20.320322
v -55.024979 8.007810 -20.320322
v -57.280121 7.116249 -27.758211
v -57.280121 8.007810 -27.758211
v -35.054192 7.116250 -26.331387
v -35.054192 8.007811 -26.331387
v -37.760216 7.116250 -33.617348
v -37.760216 8.007811 -33.617348
v -35.054192 7.116250 -26.331387
v -35.054192 8.007811 -26.331387
v -37.760216 7.116250 -33.617348
v -37.760216 8.007811 -33.617348
v -16.042183 7.116251 -35.754997
v -16.042183 8.007811 -35.754997
v -20.354706 7.116249 -42.221062
v -20.354706 8.007811 -42.221062
v -16.042183 7.116250 -35.754997
v -16.042183 8.007811 -35.754997
v -20.354706 7.116249 -42.221062
v -20.354704 8.007810 -42.221062
v 0.032966 7.116248 -49.252327
v 0.032966 8.007809 -49.252327
v -5.109882 7.116249 -55.079758
v -5.109882 8.007809 -55.079758
vt 0.375000 0.000000
vt 0.625000 0.250000
vt 0.375000 0.250000
vt 0.625000 0.500000
vt 0.375000 0.500000
vt 0.625000 0.750000
vt 0.375000 0.750000
vt 0.625000 1.000000
vt 0.375000 1.000000
vt 0.125000 0.500000
vt 0.125000 0.750000
vt 0.875000 0.750000
vt 0.375000 0.000000
vt 0.625000 0.250000
vt 0.375000 0.250000
vt 0.625000 0.500000
vt 0.375000 0.500000
vt 0.625000 0.750000
vt 0.375000 0.750000
vt 0.625000 1.000000
vt 0.375000 1.000000
vt 0.125000 0.500000
vt 0.125000 0.750000
vt 0.875000 0.750000
vt 0.375000 0.000000
vt 0.625000 0.250000
vt 0.375000 0.250000
vt 0.625000 0.500000
vt 0.375000 0.500000
vt 0.625000 0.750000
vt 0.375000 0.750000
vt 0.625000 1.000000
vt 0.375000 1.000000
vt 0.125000 0.500000
vt 0.125000 0.750000
vt 0.875000 0.750000
vt 0.375000 0.000000
vt 0.625000 0.250000
vt 0.375000 0.250000
vt 0.625000 0.500000
vt 0.375000 0.500000
vt 0.625000 0.750000
vt 0.375000 0.750000
vt 0.625000 1.000000
vt 0.375000 1.000000
vt 0.125000 0.500000
vt 0.125000 0.750000
vt 0.875000 0.750000
vt 0.375000 0.000000
vt 0.625000 0.250000
vt 0.375000 0.250000
vt 0.625000 0.500000
vt 0.375000 0.500000
vt 0.625000 0.750000
vt 0.375000 0.750000
vt 0.625000 1.000000
vt 0.375000 1.000000
vt 0.125000 0.500000
vt 0.125000 0.750000
vt 0.875000 0.750000
vt 0.375000 0.000000
vt 0.625000 0.250000
vt 0.375000 0.250000
vt 0.625000 0.500000
vt 0.375000 0.500000
vt 0.625000 0.750000
vt 0.375000 0.750000
vt 0.625000 1.000000
vt 0.375000 1.000000
vt 0.125000 0.500000
vt 0.125000 0.750000
vt 0.875000 0.750000
vt 0.375000 0.000000
vt 0.625000 0.250000
vt 0.375000 0.250000
vt 0.625000 0.500000
vt 0.375000 0.500000
vt 0.625000 0.750000
vt 0.375000 0.750000
vt 0.625000 1.000000
vt 0.375000 1.000000
vt 0.125000 0.500000
vt 0.125000 0.750000
vt 0.875000 0.750000
vt 0.375000 0.000000
vt 0.625000 0.250000
vt 0.375000 0.250000
vt 0.625000 0.500000
vt 0.375000 0.500000
vt 0.625000 0.750000
vt 0.375000 0.750000
vt 0.625000 1.000000
vt 0.375000 1.000000
vt 0.125000 0.500000
vt 0.125000 0.750000
vt 0.875000 0.750000
vt 0.375000 0.000000
vt 0.625000 0.250000
vt 0.375000 0.250000
vt 0.625000 0.500000
vt 0.375000 0.500000
vt 0.625000 0.750000
vt 0.375000 0.750000
vt 0.625000 1.000000
vt 0.375000 1.000000
vt 0.125000 0.500000
vt 0.125000 0.750000
vt 0.875000 0.750000
vt 0.375000 0.000000
vt 0.625000 0.250000
vt 0.375000 0.250000
vt 0.625000 0.500000
vt 0.375000 0.500000
vt 0.625000 0.750000
vt 0.375000 0.750000
vt 0.625000 1.000000
vt 0.375000 1.000000
vt 0.125000 0.500000
vt 0.125000 0.750000
vt 0.875000 0.750000
vt 0.375000 0.000000
vt 0.625000 0.250000
vt 0.375000 0.250000
vt 0.625000 0.500000
vt 0.375000 0.500000
vt 0.625000 0.750000
vt 0.375000 0.750000
vt 0.625000 1.000000
vt 0.375000 1.000000
vt 0.125000 0.500000
vt 0.125000 0.750000
vt 0.875000 0.750000
vt 0.375000 0.000000
vt 0.625000 0.250000
vt 0.375000 0.250000
vt 0.625000 0.500000
vt 0.375000 0.500000
vt 0.625000 0.750000
vt 0.375000 0.750000
vt 0.625000 1.000000
vt 0.375000 1.000000
vt 0.125000 0.500000
vt 0.125000 0.750000
vt 0.875000 0.750000
vt 0.375000 0.000000
vt 0.625000 0.250000
vt 0.375000 0.250000
vt 0.625000 0.500000
vt 0.375000 0.500000
vt 0.625000 0.750000
vt 0.375000 0.750000
vt 0.625000 1.000000
vt 0.375000 1.000000
vt 0.125000 0.500000
vt 0.125000 0.750000
vt 0.875000 0.750000
vt 0.375000 0.000000
vt 0.625000 0.250000
vt 0.375000 0.250000
vt 0.625000 0.500000
vt 0.375000 0.500000
vt 0.625000 0.750000
vt 0.375000 0.750000
vt 0.625000 1.000000
vt 0.375000 1.000000
vt 0.125000 0.500000
vt 0.125000 0.750000
vt 0.875000 0.750000
vt 0.375000 0.000000
vt 0.625000 0.250000
vt 0.375000 0.250000
vt 0.625000 0.500000
vt 0.375000 0.500000
vt 0.625000 0.750000
vt 0.375000 0.750000
vt 0.625000 1.000000
vt 0.375000 1.000000
vt 0.125000 0.500000
vt 0.125000 0.750000
vt 0.875000 0.750000
vt 0.375000 0.000000
vt 0.625000 0.250000
vt 0.375000 0.250000
vt 0.625000 0.500000
vt 0.375000 0.500000
vt 0.625000 0.750000
vt 0.375000 0.750000
vt 0.625000 1.000000
vt 0.375000 1.000000
vt 0.125000 0.500000
vt 0.125000 0.750000
vt 0.875000 0.750000
vt 0.375000 0.000000
vt 0.625000 0.250000
vt 0.375000 0.250000
vt 0.625000 0.500000
vt 0.375000 0.500000
vt 0.625000 0.750000
vt 0.375000 0.750000
vt 0.625000 1.000000
vt 0.375000 1.000000
vt 0.125000 0.500000
vt 0.125000 0.750000
vt 0.875000 0.750000
vt 0.375000 0.000000
vt 0.625000 0.250000
vt 0.375000 0.250000
vt 0.625000 0.500000
vt 0.375000 0.500000
vt 0.625000 0.750000
vt 0.375000 0.750000
vt 0.625000 1.000000
vt 0.375000 1.000000
vt 0.125000 0.500000
vt 0.125000 0.750000
vt 0.875000 0.750000
vt 0.375000 0.000000
vt 0.625000 0.250000
vt 0.375000 0.250000
vt 0.625000 0.500000
vt 0.375000 0.500000
vt 0.625000 0.750000
vt 0.375000 0.750000
vt 0.625000 1.000000
vt 0.375000 1.000000
vt 0.125000 0.500000
vt 0.125000 0.750000
vt 0.875000 0.750000
vt 0.375000 0.000000
vt 0.625000 0.250000
vt 0.375000 0.250000
vt 0.625000 0.500000
vt 0.375000 0.500000
vt 0.625000 0.750000
vt 0.375000 0.750000
vt 0.625000 1.000000
vt 0.375000 1.000000
vt 0.125000 0.500000
vt 0.125000 0.750000
vt 0.875000 0.750000
vt 0.375000 0.000000
vt 0.625000 0.250000
vt 0.375000 0.250000
vt 0.625000 0.500000
vt 0.375000 0.500000
vt 0.625000 0.750000
vt 0.375000 0.750000
vt 0.625000 1.000000
vt 0.375000 1.000000
vt 0.125000 0.500000
vt 0.125000 0.750000
vt 0.875000 0.750000
vt 0.625000 0.000000
vt 0.875000 0.500000
vt 0.625000 0.000000
vt 0.875000 0.500000
vt 0.625000 0.000000
vt 0.875000 0.500000
vt 0.625000 0.000000
vt 0.875000 0.500000
vt 0.625000 0.000000
vt 0.875000 0.500000
vt 0.625000 0.000000
vt 0.875000 0.500000
vt 0.625000 0.000000
vt 0.875000 0.500000
vt 0.625000 0.000000
vt 0.875000 0.500000
vt 0.625000 0.000000
vt 0.875000 0.500000
vt 0.625000 0.000000
vt 0.875000 0.500000
vt 0.625000 0.000000
vt 0.875000 0.500000
vt 0.625000 0.000000
vt 0.875000 0.500000
vt 0.625000 0.000000
vt 0.875000 0.500000
vt 0.625000 0.000000
vt 0.875000 0.500000
vt 0.625000 0.000000
vt 0.875000 0.500000
vt 0.625000 0.000000
vt 0.875000 0.500000
vt 0.625000 0.000000
vt 0.875000 0.500000
vt 0.625000 0.000000
vt 0.875000 0.500000
vt 0.625000 0.000000
vt 0.875000 0.500000
vt 0.625000 0.000000
vt 0.875000 0.500000
vt 0.625000 0.000000
vt 0.875000 0.500000
vn -0.7522 0.0000 0.6590
vn -0.5967 0.0000 -0.8025
vn 0.9234 0.0000 -0.3839
vn 0.6051 -0.0000 0.7961
vn -0.0000 -1.0000 -0.0000
vn 0.0000 1.0000 0.0000
vn -0.9234 0.0000 0.3839
vn -0.0548 0.0000 -0.9985
vn 0.9603 0.0000 0.2790
vn 0.0545 0.0000 0.9985
vn -0.9603 0.0000 -0.2790
vn 0.5198 0.0000 -0.8543
vn 0.7274 0.0000 0.6862
vn -0.5242 0.0000 0.8516
vn -0.7274 0.0000 -0.6862
vn 0.7948 0.0000 -0.6069
vn 0.5004 0.0000 0.8658
vn -0.7959 0.0000 0.6054
vn -0.5004 0.0000 -0.8658
vn 0.9112 -0.0000 -0.4119
vn 0.3173 0.0000 0.9483
vn -0.9112 0.0000 0.4120
vn -0.3173 0.0000 -0.9483
vn 0.9742 0.0000 -0.2255
vn 0.1071 0.0000 0.9943
vn -0.9740 0.0000 0.2265
vn -0.1071 0.0000 -0.9943
vn 0.9952 0.0000 0.0980
vn -0.3021 0.0000 0.9533
vn -0.9952 0.0000 -0.0977
vn 0.3021 0.0000 -0.9533
vn 0.8978 0.0000 0.4405
vn -0.5415 0.0000 0.8407
vn -0.8970 0.0000 -0.4420
vn 0.5415 0.0000 -0.8407
vn 0.7529 0.0000 0.6581
vn -0.7741 0.0000 0.6331
vn -0.7537 0.0000 -0.6572
vn 0.7741 0.0000 -0.6331
vn 0.4614 0.0000 0.8872
vn -0.9714 0.0000 0.2375
vn -0.4640 0.0000 -0.8858
vn 0.9714 0.0000 -0.2375
vn 0.0165 0.0000 0.9999
vn -0.9827 0.0000 -0.1851
vn -0.0148 0.0000 -0.9999
vn 0.9827 0.0000 0.1851
vn -0.3339 -0.0000 0.9426
vn -0.8970 0.0000 -0.4421
vn 0.3358 0.0000 -0.9419
vn 0.8970 0.0000 0.4421
vn -0.5301 0.0000 0.8479
vn -0.8093 0.0000 -0.5873
vn 0.5310 0.0000 -0.8474
vn 0.8093 0.0000 0.5873
vn -0.6390 0.0000 0.7692
vn -0.7282 0.0000 -0.6854
vn 0.6390 0.0000 -0.7692
vn 0.7282 0.0000 0.6854
vn -0.7268 0.0000 0.6868
vn -0.6413 0.0000 -0.7673
vn 0.7268 0.0000 -0.6869
vn 0.6413 0.0000 0.7673
vn -0.8194 0.0000 0.5733
vn -0.4601 -0.0000 -0.8879
vn 0.8182 0.0000 -0.5749
vn 0.4601 0.0000 0.8879
vn -0.9880 0.0000 0.1545
vn 0.4001 0.0000 -0.9165
vn 0.9798 0.0000 -0.2000
vn -0.4001 0.0000 0.9165
vn -0.5498 0.0000 -0.8353
vn 0.9570 0.0000 -0.2902
vn 0.5044 0.0000 0.8634
vn -0.9570 0.0000 0.2902
vn -0.2875 0.0000 -0.9578
vn 0.9374 0.0000 -0.3482
vn 0.2882 0.0000 0.9576
vn -0.9374 0.0000 0.3482
vn -0.4431 0.0000 -0.8965
vn 0.8319 0.0000 -0.5549
vn 0.4441 0.0000 0.8960
vn -0.8319 0.0000 0.5549
vn -0.6448 0.0000 -0.7644
vn 0.7498 0.0000 -0.6617
vn 0.6430 0.0000 0.7658
usemtl None
s off
f 1/1/1 4/2/1 3/3/1
f 3/3/2 8/4/2 7/5/2
f 7/5/3 6/6/3 5/7/3
f 5/7/4 2/8/4 1/9/4
f 3/10/5 5/7/5 1/11/5
f 8/4/6 2/12/6 6/6/6
f 9/13/7 12/14/7 11/15/7
f 11/15/8 16/16/8 15/17/8
f 15/17/9 14/18/9 13/19/9
f 13/19/10 10/20/10 9/21/10
f 11/22/5 13/19/5 9/23/5
f 16/16/6 10/24/6 14/18/6
f 17/25/11 20/26/11 19/27/11
f 19/27/12 24/28/12 23/29/12
f 23/29/13 22/30/13 21/31/13
f 21/31/14 18/32/14 17/33/14
f 19/34/5 21/31/5 17/35/5
f 24/28/6 18/36/6 22/30/6
f 25/37/15 28/38/15 27/39/15
f 27/39/16 32/40/16 31/41/16
f 31/41/17 30/42/17 29/43/17
f 29/43/18 26/44/18 25/45/18
f 27/46/5 29/43/5 25/47/5
f 32/40/6 26/48/6 30/42/6
f 33/49/19 36/50/19 35/51/19
f 35/51/20 40/52/20 39/53/20
f 39/53/21 38/54/21 37/55/21
f 37/55/22 34/56/22 33/57/22
f 35/58/5 37/55/5 33/59/5
f 40/52/6 34/60/6 38/54/6
f 41/61/23 44/62/23 43/63/23
f 43/63/24 48/64/24 47/65/24
f 47/65/25 46/66/25 45/67/25
f 45/67/26 42/68/26 41/69/26
f 43/70/5 45/67/5 41/71/5
f 48/64/6 42/72/6 46/66/6
f 49/73/27 52/74/27 51/75/27
f 51/75/28 56/76/28 55/77/28
f 55/77/29 54/78/29 53/79/29
f 53/79/30 50/80/30 49/81/30
f 51/82/5 53/79/5 49/83/5
f 56/76/6 50/84/6 54/78/6
f 57/85/31 60/86/31 59/87/31
f 59/87/32 64/88/32 63/89/32
f 63/89/33 62/90/33 61/91/33
f 61/91/34 58/92/34 57/93/34
f 59/94/5 61/91/5 57/95/5
f 64/88/6 58/96/6 62/90/6
f 65/97/35 68/98/35 67/99/35
f 67/99/36 72/100/36 71/101/36
f 71/101/37 70/102/37 69/103/37
f 69/103/38 66/104/38 65/105/38
f 67/106/5 69/103/5 65/107/5
f 72/100/6 66/108/6 70/102/6
f 73/109/39 76/110/39 75/111/39
f 75/111/40 80/112/40 79/113/40
f 79/113/41 78/114/41 77/115/41
f 77/115/42 74/116/42 73/117/42
f 75/118/5 77/115/5 73/119/5
f 80/112/6 74/120/6 78/114/6
f 81/121/43 84/122/43 83/123/43
f 83/123/44 88/124/44 87/125/44
f 87/125/45 86/126/45 85/127/45
f 85/127/46 82/128/46 81/129/46
f 83/130/5 85/127/5 81/131/5
f 88/124/6 82/132/6 86/126/6
f 89/133/47 92/134/47 91/135/47
f 91/135/48 96/136/48 95/137/48
f 95/137/49 94/138/49 93/139/49
f 93/139/50 90/140/50 89/141/50
f 91/142/5 93/139/5 89/143/5
f 96/136/6 90/144/6 94/138/6
f 97/145/51 100/146/51 99/147/51
f 99/147/52 104/148/52 103/149/52
f 103/149/53 102/150/53 101/151/53
f 101/151/54 98/152/54 97/153/54
f 99/154/5 101/151/5 97/155/5
f 104/148/6 98/156/6 102/150/6
f 105/157/55 108/158/55 107/159/55
f 107/159/56 112/160/56 111/161/56
f 111/161/57 110/162/57 109/163/57
f 109/163/58 106/164/58 105/165/58
f 107/166/5 109/163/5 105/167/5
f 112/160/6 106/168/6 110/162/6
f 113/169/59 116/170/59 115/171/59
f 115/171/60 120/172/60 119/173/60
f 119/173/61 118/174/61 117/175/61
f 117/175/62 114/176/62 113/177/62
f 115/178/5 117/175/5 113/179/5
f 120/172/6 114/180/6 118/174/6
f 121/181/63 124/182/63 123/183/63
f 123/183/64 128/184/64 127/185/64
f 127/185/65 126/186/65 125/187/65
f 125/187/66 122/188/66 121/189/66
f 123/190/5 125/187/5 121/191/5
f 128/184/6 122/192/6 126/186/6
f 129/193/67 132/194/67 131/195/67
f 131/195/68 136/196/68 135/197/68
f 135/197/69 134/198/69 133/199/69
f 133/199/70 130/200/70 129/201/70
f 131/202/5 133/199/5 129/203/5
f 136/196/6 130/204/6 134/198/6
f 137/205/71 140/206/71 139/207/71
f 139/207/72 144/208/72 143/209/72
f 143/209/73 142/210/73 141/211/73
f 141/211/74 138/212/74 137/213/74
f 139/214/5 141/211/5 137/215/5
f 144/208/6 138/216/6 142/210/6
f 145/217/75 148/218/75 147/219/75
f 147/219/76 152/220/76 151/221/76
f 151/221/77 150/222/77 149/223/77
f 149/223/78 146/224/78 145/225/78
f 147/226/5 149/223/5 145/227/5
f 152/220/6 146/228/6 150/222/6
f 153/229/79 156/230/79 155/231/79
f 155/231/80 160/232/80 159/233/80
f 159/233/81 158/234/81 157/235/81
f 157/235/82 154/236/82 153/237/82
f 155/238/5 157/235/5 153/239/5
f 160/232/6 154/240/6 158/234/6
f 161/241/83 164/242/83 163/243/83
f 163/243/84 168/244/84 167/245/84
f 167/245/85 166/246/85 165/247/85
f 165/247/86 162/248/86 161/249/86
f 163/250/5 165/247/5 161/251/5
f 168/244/6 162/252/6 166/246/6
f 1/1/1 2/253/1 4/2/1
f 3/3/2 4/2/2 8/4/2
f 7/5/3 8/4/3 6/6/3
f 5/7/4 6/6/4 2/8/4
f 3/10/5 7/5/5 5/7/5
f 8/4/6 4/254/6 2/12/6
f 9/13/7 10/255/7 12/14/7
f 11/15/8 12/14/8 16/16/8
f 15/17/9 16/16/9 14/18/9
f 13/19/10 14/18/10 10/20/10
f 11/22/5 15/17/5 13/19/5
f 16/16/6 12/256/6 10/24/6
f 17/25/11 18/257/11 20/26/11
f 19/27/12 20/26/12 24/28/12
f 23/29/13 24/28/13 22/30/13
f 21/31/14 22/30/14 18/32/14
f 19/34/5 23/29/5 21/31/5
f 24/28/6 20/258/6 18/36/6
f 25/37/15 26/259/15 28/38/15
f 27/39/16 28/38/16 32/40/16
f 31/41/17 32/40/17 30/42/17
f 29/43/18 30/42/18 26/44/18
f 27/46/5 31/41/5 29/43/5
f 32/40/6 28/260/6 26/48/6
f 33/49/19 34/261/19 36/50/19
f 35/51/20 36/50/20 40/52/20
f 39/53/21 40/52/21 38/54/21
f 37/55/22 38/54/22 34/56/22
f 35/58/5 39/53/5 37/55/5
f 40/52/6 36/262/6 34/60/6
f 41/61/23 42/263/23 44/62/23
f 43/63/24 44/62/24 48/64/24
f 47/65/25 48/64/25 46/66/25
f 45/67/26 46/66/26 42/68/26
f 43/70/5 47/65/5 45/67/5
f 48/64/6 44/264/6 42/72/6
f 49/73/27 50/265/27 52/74/27
f 51/75/28 52/74/28 56/76/28
f 55/77/29 56/76/29 54/78/29
f 53/79/30 54/78/30 50/80/30
f 51/82/5 55/77/5 53/79/5
f 56/76/6 52/266/6 50/84/6
f 57/85/31 58/267/31 60/86/31
f 59/87/32 60/86/32 64/88/32
f 63/89/33 64/88/33 62/90/33
f 61/91/34 62/90/34 58/92/34
f 59/94/5 63/89/5 61/91/5
f 64/88/6 60/268/6 58/96/6
f 65/97/35 66/269/35 68/98/35
f 67/99/36 68/98/36 72/100/36
f 71/101/37 72/100/37 70/102/37
f 69/103/38 70/102/38 66/104/38
f 67/106/5 71/101/5 69/103/5
f 72/100/6 68/270/6 66/108/6
f 73/109/39 74/271/39 76/110/39
f 75/111/40 76/110/40 80/112/40
f 79/113/41 80/112/41 78/114/41
f 77/115/42 78/114/42 74/116/42
f 75/118/5 79/113/5 77/115/5
f 80/112/6 76/272/6 74/120/6
f 81/121/43 82/273/43 84/122/43
f 83/123/44 84/122/44 88/124/44
f 87/125/45 88/124/45 86/126/45
f 85/127/46 86/126/46 82/128/46
f 83/130/5 87/125/5 85/127/5
f 88/124/6 84/274/6 82/132/6
f 89/133/47 90/275/47 92/134/47
f 91/135/48 92/134/48 96/136/48
f 95/137/49 96/136/49 94/138/49
f 93/139/50 94/138/50 90/140/50
f 91/142/5 95/137/5 93/139/5
f 96/136/6 92/276/6 90/144/6
f 97/145/51 98/277/51 100/146/51
f 99/147/52 100/146/52 104/148/52
f 103/149/53 104/148/53 102/150/53
f 101/151/54 102/150/54 98/152/54
f 99/154/5 103/149/5 101/151/5
f 104/148/6 100/278/6 98/156/6
f 105/157/55 106/279/55 108/158/55
f 107/159/56 108/158/56 112/160/56
f 111/161/57 112/160/57 110/162/57
f 109/163/58 110/162/58 106/164/58
f 107/166/5 111/161/5 109/163/5
f 112/160/6 108/280/6 106/168/6
f 113/169/59 114/281/59 116/170/59
f 115/171/60 116/170/60 120/172/60
f 119/173/61 120/172/61 118/174/61
f 117/175/62 118/174/62 114/176/62
f 115/178/5 119/173/5 117/175/5
f 120/172/6 116/282/6 114/180/6
f 121/181/63 122/283/63 124/182/63
f 123/183/64 124/182/64 128/184/64
f 127/185/65 128/184/65 126/186/65
f 125/187/66 126/186/66 122/188/66
f 123/190/5 127/185/5 125/187/5
f 128/184/6 124/284/6 122/192/6
f 129/193/67 130/285/67 132/194/67
f 131/195/68 132/194/68 136/196/68
f 135/197/69 136/196/69 134/198/69
f 133/199/70 134/198/70 130/200/70
f 131/202/5 135/197/5 133/199/5
f 136/196/6 132/286/6 130/204/6
f 137/205/71 138/287/71 140/206/71
f 139/207/72 140/206/72 144/208/72
f 143/209/73 144/208/73 142/210/73
f 141/211/74 142/210/74 138/212/74
f 139/214/5 143/209/5 141/211/5
f 144/208/6 140/288/6 138/216/6
f 145/217/75 146/289/75 148/218/75
f 147/219/76 148/218/76 152/220/76
f 151/221/77 152/220/77 150/222/77
f 149/223/78 150/222/78 146/224/78
f 147/226/5 151/221/5 149/223/5
f 152/220/6 148/290/6 146/228/6
f 153/229/79 154/291/79 156/230/79
f 155/231/80 156/230/80 160/232/80
f 159/233/81 160/232/81 158/234/81
f 157/235/82 158/234/82 154/236/82
f 155/238/5 159/233/5 157/235/5
f 160/232/6 156/292/6 154/240/6
f 161/241/83 162/293/83 164/242/83
f 163/243/84 164/242/84 168/244/84
f 167/245/85 168/244/85 166/246/85
f 165/247/86 166/246/86 162/248/86
f 163/250/5 167/245/5 165/247/5
f 168/244/6 164/294/6 162/252/6
